# xmcd
#
# Track frame offsets: 
#        150
#        18834
#        32640
#        47783
#        69457
#        84413
#        98575
#        120180
#        135432
#        150981
#        170768
#        189783
#
# Disc length: 2707 seconds
#
# Revision: 1
# Processed by: cddbd v1.5.2PL0 Copyright (c) Steve Scherf et al.
# Submitted via: ExactAudioCopy v1.0b3
#
DISCID=810a910c
DTITLE=Marshall and Alexander - Best of CD1
DYEAR=2011
DGENRE=Pop
TTITLE0=Hand In Hand (Radio Edit)
TTITLE1=Perhaps Love (Radio Edit)
TTITLE2=Another Day (Radio Edit)
TTITLE3=If You Could See Me Now (Radio Edit)
TTITLE4=This Is My Song (Radio Edit)
TTITLE5=Men's Delight (Radio Edit)
TTITLE6=Lovers Forever (Radio Edit)
TTITLE7=The Way You Touch My Soul (Radio Edit)
TTITLE8=L'amour (Radio Edit)
TTITLE9=Sentimenti Fragili (Radio Edit)
TTITLE10=Gente Di Mare (Radio Edit)
TTITLE11=O Cessate (Radio Edit)
EXTD=
EXTT0=
EXTT1=
EXTT2=
EXTT3=
EXTT4=
EXTT5=
EXTT6=
EXTT7=
EXTT8=
EXTT9=
EXTT10=
EXTT11=
PLAYORDER=
